PathFileType	4	(X/Y/Z)	/Users/itak/Documents/Research/Walk-IL/dataset/trc/00174_00008.trc
DataRate	CameraRate	NumFrames	NumMarkers	Units	OrigDataRate	OrigDataStartFrame	OrigNumFrames
100.000000	100.000000	4	53	mm	100.000000	460	614
Frame#	Time	RPSI			LPSI			L3			STRN			T10			C7			CLAV			RBAK			LBAK			LSHO			LUPA			LAEL			LAOL			LWTS			LWPS			LFRA			LIFD			LHPS			LHTS			RSHO			RUPA			RAEL			RAOL			RWTS			RWPS			RFRA			RIFD			RHTS			RHPS			RBHD			LFHD			RFHD			LBHD			LHIP			RHIP			RASI			LASI			LKNE			LTHI			LANK			LTIP			LTOE			LMT1			LMT5			LHEE			RKNE			RTHI			RANK			RTIP			RTOE			RMT1			RMT5			RHEE			
		X1	Y1	Z1	X2	Y2	Z2	X3	Y3	Z3	X4	Y4	Z4	X5	Y5	Z5	X6	Y6	Z6	X7	Y7	Z7	X8	Y8	Z8	X9	Y9	Z9	X10	Y10	Z10	X11	Y11	Z11	X12	Y12	Z12	X13	Y13	Z13	X14	Y14	Z14	X15	Y15	Z15	X16	Y16	Z16	X17	Y17	Z17	X18	Y18	Z18	X19	Y19	Z19	X20	Y20	Z20	X21	Y21	Z21	X22	Y22	Z22	X23	Y23	Z23	X24	Y24	Z24	X25	Y25	Z25	X26	Y26	Z26	X27	Y27	Z27	X28	Y28	Z28	X29	Y29	Z29	X30	Y30	Z30	X31	Y31	Z31	X32	Y32	Z32	X33	Y33	Z33	X34	Y34	Z34	X35	Y35	Z35	X36	Y36	Z36	X37	Y37	Z37	X38	Y38	Z38	X39	Y39	Z39	X40	Y40	Z40	X41	Y41	Z41	X42	Y42	Z42	X43	Y43	Z43	X44	Y44	Z44	X45	Y45	Z45	X46	Y46	Z46	X47	Y47	Z47	X48	Y48	Z48	X49	Y49	Z49	X50	Y50	Z50	X51	Y51	Z51	X52	Y52	Z52	X53	Y53	Z53	

461	4.600000000000001	-1183.80517578125	1071.436767578125	420.4432373046875	-1192.053955078125	1076.117553710938	298.0556945800781	-1182.64599609375	1113.810913085938	363.994873046875	-913.8213500976562	1305.906494140625	337.0872192382812	-1204.37451171875	1269.90478515625	365.5804748535156	-1132.093872070312	1537.412963867188	339.4866027832031	-937.69970703125	1420.491455078125	324.9430847167969	-1194.423828125	1368.427978515625	459.9294128417969	-1151.215942382812	1508.25439453125	241.0761413574219	-1085.825805664062	1487.419311523438	154.7086639404297	-1137.787109375	1354.406005859375	94.28903961181641	-1147.547729492188	1138.410400390625	85.32302093505859	-1174.330688476562	1126.880859375	169.4768981933594	-1039.12890625	904.392822265625	91.77019500732422	-1128.91259765625	884.0211791992188	76.30464935302734	-1142.416625976562	1026.719360351562	71.99463653564453	-1019.670104980469	720.2012329101562	111.4426879882812	-1107.620483398438	814.0274047851562	75.59542083740234	-1035.564453125	825.4562377929688	70.95903015136719	-1050.863159179688	1517.375610351562	513.04345703125	-1067.14208984375	1454.5576171875	586.786376953125	-1092.402587890625	1170.504028320312	654.1091918945312	-1105.7353515625	1158.580322265625	557.8823852539062	-970.4489135742188	934.0449829101562	645.7638549804688	-1045.3359375	925.4661254882812	694.8062133789062	-1071.196899414062	1098.979736328125	675.1158447265625	-969.7965698242188	744.7451782226562	632.3372802734375	-950.7335205078125	838.6934814453125	659.8112182617188	-1022.792053222656	839.7777709960938	695.7793579101562	-1048.99462890625	1706.725219726562	399.4754333496094	-919.7206420898438	1724.958251953125	223.8884735107422	-884.3359375	1737.991088867188	348.5158996582031	-1091.368408203125	1700.959228515625	268.0619201660156	-1098.684814453125	1018.048950195312	169.1855316162109	-1030.575927734375	1011.768432617188	538.6597290039062	-951.642333984375	1041.369140625	480.8533935546875	-969.107666015625	1048.552124023438	223.9463653564453	-935.3308715820312	523.1293334960938	181.6735382080078	-973.7523193359375	667.3712768554688	160.3072814941406	-1111.943237304688	69.92888641357422	164.0403900146484	-1019.413513183594	301.7133483886719	158.7676696777344	-897.2999877929688	61.68846130371094	183.9551239013672	-943.1890258789062	61.87616729736328	233.0290374755859	-1006.226440429688	48.39191818237305	125.2899780273438	-1159.926635742188	80.98889923095703	235.6995849609375	-1032.786376953125	511.2643127441406	482.680419921875	-984.9562377929688	777.331787109375	526.8417358398438	-1169.656127929688	32.54947280883789	461.3219299316406	-1033.2392578125	388.4938049316406	459.4061889648438	-948.283935546875	52.33209991455078	419.6901245117188	-1002.174499511719	45.49720001220703	376.4298095703125	-1050.961181640625	34.79781341552734	491.5591735839844	-1214.449096679688	31.15811347961426	398.38037109375	
462	4.61	-1185.898071289062	1071.411865234375	419.773681640625	-1193.754516601562	1076.121948242188	297.3172302246094	-1184.61181640625	1113.768188476562	363.2003479003906	-916.4006958007812	1306.618041992188	337.2522888183594	-1206.91748046875	1269.670043945312	364.5571594238281	-1135.429931640625	1537.428100585938	339.0364685058594	-940.5934448242188	1421.145263671875	325.1782531738281	-1197.760009765625	1368.113525390625	458.9615478515625	-1153.984008789062	1508.391479492188	240.5383148193359	-1088.065307617188	1488.034301757812	154.4308166503906	-1139.465942382812	1355.0810546875	93.37971496582031	-1148.928466796875	1139.195434570312	83.89884948730469	-1176.146850585938	1127.505249023438	167.8875274658203	-1042.121459960938	904.3988647460938	90.2696533203125	-1131.930053710938	884.8488159179688	74.21771240234375	-1144.332153320312	1027.625854492188	70.22610473632812	-1024.238037109375	719.9925537109375	109.9598159790039	-1111.249389648438	814.6788330078125	73.51937103271484	-1039.017456054688	825.4451904296875	69.40780639648438	-1054.924926757812	1517.434448242188	512.8910522460938	-1071.429931640625	1454.532470703125	586.4807739257812	-1096.579833984375	1170.512451171875	653.3521118164062	-1109.161254882812	1158.455078125	556.9070434570312	-975.0034790039062	933.8309326171875	646.5621337890625	-1050.375610351562	925.594970703125	694.9680786132812	-1075.660034179688	1099.088134765625	674.6314697265625	-974.787353515625	744.487548828125	633.8241577148438	-955.7112426757812	838.4302978515625	661.1189575195312	-1028.142333984375	839.89404296875	696.473876953125	-1052.392944335938	1706.801879882812	400.1324157714844	-923.0961303710938	1725.799560546875	224.6331024169922	-887.718017578125	1738.18017578125	349.3409118652344	-1094.758178710938	1701.702880859375	268.7052612304688	-1100.197143554688	1017.855834960938	168.8229675292969	-1032.888061523438	1012.056823730469	538.283203125	-953.8344116210938	1041.791015625	480.5393676757812	-970.5830688476562	1048.600341796875	223.5639495849609	-942.7166748046875	521.53076171875	182.5344543457031	-979.1846313476562	666.1563720703125	161.0133056640625	-1121.806884765625	69.15684509277344	166.0066375732422	-1028.126220703125	300.5849609375	160.0786895751953	-907.265869140625	59.73168563842773	186.059814453125	-953.3468627929688	60.13611602783203	235.1778564453125	-1016.224060058594	46.89753723144531	127.3427734375	-1169.881225585938	80.80754852294922	237.5283355712891	-1033.86767578125	511.5270385742188	482.5021667480469	-986.8689575195312	777.6516723632812	526.7439575195312	-1169.708618164062	32.59674072265625	461.2501525878906	-1034.023315429688	388.7270812988281	459.271240234375	-948.345947265625	52.52786254882812	419.8093872070312	-1002.227783203125	45.58406448364258	376.5716247558594	-1051.114135742188	34.85420989990234	491.5498352050781	-1215.896362304688	32.04138946533203	397.1619567871094	
463	4.62	-1187.90283203125	1071.345947265625	419.0224304199219	-1195.343872070312	1076.068725585938	296.5012817382812	-1186.480712890625	1113.66357421875	362.3229370117188	-918.8958740234375	1307.254028320312	337.3483276367188	-1209.363525390625	1269.370971679688	363.4717102050781	-1138.678588867188	1537.379150390625	338.51220703125	-943.3991088867188	1421.7275390625	325.3337707519531	-1200.985595703125	1367.734375	457.9464721679688	-1156.6689453125	1508.46337890625	239.9422149658203	-1090.240356445312	1488.586059570312	154.0843048095703	-1141.06689453125	1355.6767578125	92.42269134521484	-1150.199096679688	1139.915161132812	82.41136932373047	-1177.835815429688	1128.055541992188	166.2421112060547	-1044.992553710938	904.3460083007812	88.67975616455078	-1134.824096679688	885.6309814453125	72.02320861816406	-1146.131225585938	1028.476196289062	68.38397216796875	-1028.748168945312	719.718505859375	108.4191970825195	-1114.778198242188	815.2799072265625	71.34275817871094	-1042.368896484375	825.3643798828125	67.78234100341797	-1058.881103515625	1517.431762695312	512.6458129882812	-1075.606201171875	1454.456420898438	586.1039428710938	-1100.674560546875	1170.463256835938	652.5380249023438	-1112.477905273438	1158.245361328125	555.8150634765625	-979.3220825195312	933.6421508789062	647.2506103515625	-1055.183471679688	925.6560668945312	694.9786987304688	-1080.010498046875	1099.1279296875	674.0704956054688	-979.3062744140625	744.2769165039062	635.1138916015625	-960.3516235351562	838.2225341796875	662.28759765625	-1033.17236328125	839.9677124023438	696.9800415039062	-1055.73388671875	1706.783081054688	400.7396545410156	-926.4026489257812	1726.600341796875	225.3420715332031	-891.0328369140625	1738.322265625	350.1189880371094	-1098.078735351562	1702.359497070312	269.2857666015625	-1101.494262695312	1017.561218261719	168.4453887939453	-1035.209228515625	1012.296081542969	537.8505859375	-955.9285888671875	1042.170288085938	480.22802734375	-971.95703125	1048.533203125	223.1476593017578	-950.38134765625	519.8782348632812	183.2737274169922	-984.8709716796875	664.8524780273438	161.6263732910156	-1130.982666015625	68.00717163085938	168.03955078125	-1036.692016601562	299.2708740234375	161.3507690429688	-916.5333862304688	57.72460174560547	188.0798492431641	-962.7094116210938	58.33218383789062	237.2437896728516	-1025.526489257812	45.17277145385742	129.3891296386719	-1179.134521484375	80.20555877685547	239.4476318359375	-1034.85498046875	511.7479553222656	482.2908935546875	-988.7243041992188	777.9317626953125	526.6578369140625	-1169.745849609375	32.68172836303711	461.1470947265625	-1034.70849609375	388.9335021972656	459.0999450683594	-948.3864135742188	52.66007995605469	419.9320983886719	-1002.25146484375	45.63558578491211	376.7245483398438	-1051.275024414062	34.92499923706055	491.5320129394531	-1217.2314453125	32.85375213623047	396.006103515625	
464	4.63	-1189.821655273438	1071.227783203125	418.1877136230469	-1196.83349609375	1075.944458007812	295.606689453125	-1188.257568359375	1113.482421875	361.3614196777344	-921.31005859375	1307.801025390625	337.3808288574219	-1211.713134765625	1268.994384765625	362.3223266601562	-1141.842407226562	1537.258056640625	337.915283203125	-946.1248779296875	1422.220458984375	325.4131469726562	-1204.10400390625	1367.283569335938	456.8809814453125	-1159.274780273438	1508.457763671875	239.2852020263672	-1092.357543945312	1489.052368164062	153.6664123535156	-1142.600708007812	1356.172241210938	91.41997528076172	-1151.384765625	1140.550048828125	80.86740875244141	-1179.419555664062	1128.51123046875	164.5498962402344	-1047.729858398438	904.2341918945312	86.99868774414062	-1137.583618164062	886.3450927734375	69.73487854003906	-1147.827026367188	1029.247192382812	66.47837066650391	-1033.165649414062	719.3837890625	106.7964859008789	-1118.180419921875	815.8135375976562	69.07357025146484	-1045.6025390625	825.2130126953125	66.07281494140625	-1062.733642578125	1517.35546875	512.310791015625	-1079.669311523438	1454.318481445312	585.6586303710938	-1104.68408203125	1170.345458984375	651.6820068359375	-1115.689575195312	1157.937377929688	554.6199340820312	-983.3965454101562	933.4671630859375	647.814208984375	-1059.742919921875	925.6378784179688	694.84521484375	-1084.233154296875	1099.087890625	673.4450073242188	-983.3722534179688	744.0922241210938	636.17578125	-964.6564331054688	838.0516967773438	663.2891235351562	-1037.866943359375	839.9793090820312	697.2901611328125	-1059.0234375	1706.656982421875	401.2905578613281	-929.642578125	1727.35107421875	226.0149993896484	-894.2933349609375	1738.412963867188	350.8549194335938	-1101.33251953125	1702.913818359375	269.7980651855469	-1102.59033203125	1017.141784667969	168.0450134277344	-1037.52392578125	1012.483825683594	537.36083984375	-957.9205932617188	1042.498291015625	479.9178466796875	-973.25146484375	1048.332885742188	222.6953887939453	-958.2800903320312	518.1767578125	183.8950805664062	-990.7861328125	663.4619750976562	162.1426696777344	-1139.459106445312	66.51711273193359	170.0865325927734	-1045.0810546875	297.7870178222656	162.5679168701172	-925.09228515625	55.76466751098633	189.9933013916016	-971.28466796875	56.52278518676758	239.1963806152344	-1034.109252929688	43.31181335449219	131.3757934570312	-1187.681518554688	79.18341064453125	241.4067993164062	-1035.759765625	511.9242553710938	482.0548706054688	-990.5040283203125	778.1738891601562	526.5723266601562	-1169.774047851562	32.79539489746094	461.0182189941406	-1035.305419921875	389.115234375	458.8969421386719	-948.4182739257812	52.74497985839844	420.0645751953125	-1002.249938964844	45.66314697265625	376.893798828125	-1051.443725585938	35.01047897338867	491.5072021484375	-1218.396118164062	33.55282974243164	394.968505859375	
